name rise34.3697peak60.0498fall86.3158.mot
datacolumns 19
datarows 36
range 17.05661100000000 17.11493600000000
endheader
time	ground_force1_vx	ground_force1_vy	ground_force1_vz	ground_force1_px	ground_force1_py	ground_force1_pz	ground_force2_vx	ground_force2_vy	ground_force2_vz	ground_force2_px	ground_force2_py	ground_force2_pz	ground_torque1_x	ground_torque1_y	ground_torque1_z	ground_torque2_x	ground_torque2_y	ground_torque2_z	
17.05661100000000	58.91420000000000	744.58013200000005	47.47582500000000	0.40527700000000	0.00000000000000	0.10314100000000	0.15537000000000	3.14874100000000	0.28273700000000	0.00000000000000	0.00000000000000	0.00000000000000	0.00000000000000	25.05390200000000	0.00000000000000	0.00000000000000	0.10927200000000	0.00000000000000	
17.05827100000000	58.40577400000000	748.28960099999995	47.71713700000000	0.40383400000000	0.00000000000000	0.10317000000000	0.00000000000000	0.00000000000000	0.00000000000000	0.00000000000000	0.00000000000000	0.00000000000000	0.00000000000000	25.20268600000000	0.00000000000000	0.00000000000000	0.00000000000000	0.00000000000000	
17.05993200000000	57.89795600000000	751.88607600000000	47.95686200000000	0.40241100000000	0.00000000000000	0.10320000000000	0.00000000000000	0.00000000000000	0.00000000000000	0.00000000000000	0.00000000000000	0.00000000000000	0.00000000000000	25.35118900000000	0.00000000000000	0.00000000000000	0.00000000000000	0.00000000000000	
17.06161600000000	57.39133000000000	755.36656700000003	48.19436600000000	0.40101200000000	0.00000000000000	0.10322900000000	0.00000000000000	0.00000000000000	0.00000000000000	0.00000000000000	0.00000000000000	0.00000000000000	0.00000000000000	25.49900900000000	0.00000000000000	0.00000000000000	0.00000000000000	0.00000000000000	
17.06326800000000	56.88642000000000	758.72813900000006	48.42896300000000	0.39963700000000	0.00000000000000	0.10325900000000	0.00000000000000	0.00000000000000	0.00000000000000	0.00000000000000	0.00000000000000	0.00000000000000	0.00000000000000	25.64570500000000	0.00000000000000	0.00000000000000	0.00000000000000	0.00000000000000	
17.06493500000000	56.38368400000000	761.96793100000002	48.65992500000000	0.39828700000000	0.00000000000000	0.10328800000000	0.00000000000000	0.00000000000000	0.00000000000000	0.00000000000000	0.00000000000000	0.00000000000000	0.00000000000000	25.79080800000000	0.00000000000000	0.00000000000000	0.00000000000000	0.00000000000000	
17.06661600000000	55.88351900000000	765.08316500000001	48.88648400000000	0.39696300000000	0.00000000000000	0.10331600000000	0.00000000000000	0.00000000000000	0.00000000000000	0.00000000000000	0.00000000000000	0.00000000000000	0.00000000000000	25.93382300000000	0.00000000000000	0.00000000000000	0.00000000000000	0.00000000000000	
17.06826900000000	55.38626400000000	768.07116399999995	49.10784400000000	0.39566700000000	0.00000000000000	0.10334400000000	0.00000000000000	0.00000000000000	0.00000000000000	0.00000000000000	0.00000000000000	0.00000000000000	0.00000000000000	26.07423400000000	0.00000000000000	0.00000000000000	0.00000000000000	0.00000000000000	
17.06993500000000	54.89219900000000	770.92936399999996	49.32318500000000	0.39439800000000	0.00000000000000	0.10337200000000	0.00000000000000	0.00000000000000	0.00000000000000	0.00000000000000	0.00000000000000	0.00000000000000	0.00000000000000	26.21150700000000	0.00000000000000	0.00000000000000	0.00000000000000	0.00000000000000	
17.07161300000000	54.40155000000000	773.65532900000005	49.53167300000000	0.39315800000000	0.00000000000000	0.10339800000000	0.00000000000000	0.00000000000000	0.00000000000000	0.00000000000000	0.00000000000000	0.00000000000000	0.00000000000000	26.34509800000000	0.00000000000000	0.00000000000000	0.00000000000000	0.00000000000000	
17.07326800000000	53.91449000000000	776.24676499999998	49.73246200000000	0.39194700000000	0.00000000000000	0.10342300000000	0.00000000000000	0.00000000000000	0.00000000000000	0.00000000000000	0.00000000000000	0.00000000000000	0.00000000000000	26.47445500000000	0.00000000000000	0.00000000000000	0.00000000000000	0.00000000000000	
17.07493300000000	53.43114200000000	778.70153200000004	49.92470800000000	0.39076600000000	0.00000000000000	0.10344700000000	0.00000000000000	0.00000000000000	0.00000000000000	0.00000000000000	0.00000000000000	0.00000000000000	0.00000000000000	26.59902500000000	0.00000000000000	0.00000000000000	0.00000000000000	0.00000000000000	
17.07659800000000	52.95158100000000	781.01765499999999	50.10757000000000	0.38961400000000	0.00000000000000	0.10347000000000	0.00000000000000	0.00000000000000	0.00000000000000	0.00000000000000	0.00000000000000	0.00000000000000	0.00000000000000	26.71825500000000	0.00000000000000	0.00000000000000	0.00000000000000	0.00000000000000	
17.07826800000000	52.47583900000000	783.19333900000004	50.28022100000000	0.38849200000000	0.00000000000000	0.10349100000000	0.00000000000000	0.00000000000000	0.00000000000000	0.00000000000000	0.00000000000000	0.00000000000000	0.00000000000000	26.83160000000000	0.00000000000000	0.00000000000000	0.00000000000000	0.00000000000000	
17.07993100000000	52.00390600000000	785.22697700000003	50.44185500000000	0.38740000000000	0.00000000000000	0.10351100000000	0.00000000000000	0.00000000000000	0.00000000000000	0.00000000000000	0.00000000000000	0.00000000000000	0.00000000000000	26.93852400000000	0.00000000000000	0.00000000000000	0.00000000000000	0.00000000000000	
17.08161500000000	51.53573400000000	787.11716100000001	50.59168800000000	0.38633700000000	0.00000000000000	0.10353000000000	0.00000000000000	0.00000000000000	0.00000000000000	0.00000000000000	0.00000000000000	0.00000000000000	0.00000000000000	27.03850800000000	0.00000000000000	0.00000000000000	0.00000000000000	0.00000000000000	
17.08326800000000	51.07124000000000	788.86269400000003	50.72897200000000	0.38530500000000	0.00000000000000	0.10354600000000	0.00000000000000	0.00000000000000	0.00000000000000	0.00000000000000	0.00000000000000	0.00000000000000	0.00000000000000	27.13105000000000	0.00000000000000	0.00000000000000	0.00000000000000	0.00000000000000	
17.08493100000000	50.61030900000000	790.46259499999996	50.85299400000000	0.38430100000000	0.00000000000000	0.10356100000000	0.00000000000000	0.00000000000000	0.00000000000000	0.00000000000000	0.00000000000000	0.00000000000000	0.00000000000000	27.21566800000000	0.00000000000000	0.00000000000000	0.00000000000000	0.00000000000000	
17.08661600000000	50.15279800000000	791.91610900000001	50.96308600000000	0.38332600000000	0.00000000000000	0.10357400000000	0.00000000000000	0.00000000000000	0.00000000000000	0.00000000000000	0.00000000000000	0.00000000000000	0.00000000000000	27.29191000000000	0.00000000000000	0.00000000000000	0.00000000000000	0.00000000000000	
17.08827000000000	49.69854000000000	793.22271400000000	51.05862800000000	0.38238000000000	0.00000000000000	0.10358500000000	0.00000000000000	0.00000000000000	0.00000000000000	0.00000000000000	0.00000000000000	0.00000000000000	0.00000000000000	27.35934700000000	0.00000000000000	0.00000000000000	0.00000000000000	0.00000000000000	
17.08994400000000	49.24734500000000	794.38212699999997	51.13905300000000	0.38146100000000	0.00000000000000	0.10359400000000	0.00000000000000	0.00000000000000	0.00000000000000	0.00000000000000	0.00000000000000	0.00000000000000	0.00000000000000	27.41758700000000	0.00000000000000	0.00000000000000	0.00000000000000	0.00000000000000	
17.09161600000000	48.79900300000000	795.39430800000002	51.20385200000000	0.38056900000000	0.00000000000000	0.10360100000000	0.00000000000000	0.00000000000000	0.00000000000000	0.00000000000000	0.00000000000000	0.00000000000000	0.00000000000000	27.46626600000000	0.00000000000000	0.00000000000000	0.00000000000000	0.00000000000000	
17.09326800000000	48.35329200000000	796.25946599999997	51.25257400000000	0.37970300000000	0.00000000000000	0.10360700000000	0.00000000000000	0.00000000000000	0.00000000000000	0.00000000000000	0.00000000000000	0.00000000000000	0.00000000000000	27.50506100000000	0.00000000000000	0.00000000000000	0.00000000000000	0.00000000000000	
17.09493800000000	47.90997600000000	796.97806100000003	51.28483600000000	0.37886300000000	0.00000000000000	0.10361000000000	0.00000000000000	0.00000000000000	0.00000000000000	0.00000000000000	0.00000000000000	0.00000000000000	0.00000000000000	27.53368400000000	0.00000000000000	0.00000000000000	0.00000000000000	0.00000000000000	
17.09660000000000	47.46881000000000	797.55080799999996	51.30031900000000	0.37804600000000	0.00000000000000	0.10361100000000	0.00000000000000	0.00000000000000	0.00000000000000	0.00000000000000	0.00000000000000	0.00000000000000	0.00000000000000	27.55188700000000	0.00000000000000	0.00000000000000	0.00000000000000	0.00000000000000	
17.09827300000000	47.02954200000000	797.97867499999995	51.29877400000000	0.37725200000000	0.00000000000000	0.10361000000000	0.00000000000000	0.00000000000000	0.00000000000000	0.00000000000000	0.00000000000000	0.00000000000000	0.00000000000000	27.55946500000000	0.00000000000000	0.00000000000000	0.00000000000000	0.00000000000000	
17.09993900000000	46.59191800000000	798.26288599999998	51.28002200000000	0.37648000000000	0.00000000000000	0.10360800000000	0.00000000000000	0.00000000000000	0.00000000000000	0.00000000000000	0.00000000000000	0.00000000000000	0.00000000000000	27.55625300000000	0.00000000000000	0.00000000000000	0.00000000000000	0.00000000000000	
17.10160400000000	46.15568500000000	798.40492099999994	51.24395500000000	0.37572800000000	0.00000000000000	0.10360300000000	0.00000000000000	0.00000000000000	0.00000000000000	0.00000000000000	0.00000000000000	0.00000000000000	0.00000000000000	27.54213000000000	0.00000000000000	0.00000000000000	0.00000000000000	0.00000000000000	
17.10327000000000	45.72058800000000	798.40651300000002	51.19053700000000	0.37499600000000	0.00000000000000	0.10359600000000	0.00000000000000	0.00000000000000	0.00000000000000	0.00000000000000	0.00000000000000	0.00000000000000	0.00000000000000	27.51701900000000	0.00000000000000	0.00000000000000	0.00000000000000	0.00000000000000	
17.10493500000000	45.28638000000000	798.26964499999997	51.11980600000000	0.37428100000000	0.00000000000000	0.10358800000000	0.00000000000000	0.00000000000000	0.00000000000000	0.00000000000000	0.00000000000000	0.00000000000000	0.00000000000000	27.48088400000000	0.00000000000000	0.00000000000000	0.00000000000000	0.00000000000000	
17.10661900000000	44.85282100000000	797.99654799999996	51.03186800000000	0.37358200000000	0.00000000000000	0.10357800000000	0.00000000000000	0.00000000000000	0.00000000000000	0.00000000000000	0.00000000000000	0.00000000000000	0.00000000000000	27.43373500000000	0.00000000000000	0.00000000000000	0.00000000000000	0.00000000000000	
17.10827100000000	44.41967700000000	797.58969600000000	50.92690200000000	0.37289800000000	0.00000000000000	0.10356600000000	0.00000000000000	0.00000000000000	0.00000000000000	0.00000000000000	0.00000000000000	0.00000000000000	0.00000000000000	27.37562500000000	0.00000000000000	0.00000000000000	0.00000000000000	0.00000000000000	
17.10993300000000	43.98673000000000	797.05180099999995	50.80515700000000	0.37222700000000	0.00000000000000	0.10355200000000	0.00000000000000	0.00000000000000	0.00000000000000	0.00000000000000	0.00000000000000	0.00000000000000	0.00000000000000	27.30664900000000	0.00000000000000	0.00000000000000	0.00000000000000	0.00000000000000	
17.11161300000000	43.55377200000000	796.38580899999999	50.66694600000000	0.37156800000000	0.00000000000000	0.10353700000000	0.00000000000000	0.00000000000000	0.00000000000000	0.00000000000000	0.00000000000000	0.00000000000000	0.00000000000000	27.22694100000000	0.00000000000000	0.00000000000000	0.00000000000000	0.00000000000000	
17.11326600000000	43.12061000000000	795.59488899999997	50.51265000000000	0.37091900000000	0.00000000000000	0.10352100000000	0.00000000000000	0.00000000000000	0.00000000000000	0.00000000000000	0.00000000000000	0.00000000000000	0.00000000000000	27.13667900000000	0.00000000000000	0.00000000000000	0.00000000000000	0.00000000000000	
17.11493600000000	42.68706900000000	794.68242899999996	50.34271000000000	0.37027700000000	0.00000000000000	0.10350300000000	0.00000000000000	0.00000000000000	0.00000000000000	0.00000000000000	0.00000000000000	0.00000000000000	0.00000000000000	27.03607900000000	0.00000000000000	0.00000000000000	0.00000000000000	0.00000000000000	
